<svg height="100" width="100" xmlns="http://www.w3.org/2000/svg"><path d="m20 39c-2 7 5.1 9.3 8 10 4 1 10-7 10-7l19 2-15 12c-3 4-12 12-9 29l-1 5h-2l-1 8h50l-1-8h-2l-1-5h-3s-3-7 1-17 7-21 6-29-12-22-22-22-17 1-20 5-17 17-17 17z" fill="#666"/><path d="m33 85h42l1 5h-44zm27-30c-5 12-5.2 20.9-6 24-1 4-10.3 5.9-9-1 3-16 13-21 15-23zm-22 24c0 2-2 4-5 3s1-10 5-16 15-14 21-16c-8 7-16 13-21 29zm-18-39c0-4 0-4 8-10 4.5-3.4 7-5 8-8 0-3 8.7-5.6 13-7l1-12s7 6 7 9v3s17 2 19 24c0 0-7-17-18-18-7-.6-9 4-13 5s1.9-4.3-2-5c-6-1-8.1 3.2-5 4 4 1 3 3 1 3-4.1 0-4 2-6 5s-10 7-13 7z" fill="#ccc"/><path d="m29 47c5-4 8-8 11-7 4.2 1.4 17 2 19-1 4-6 4-6.1 4 1 0 7-2 7-10 10s-11 6-11 6c1-5 8-8 10-10s-6-1-11-3c-4.7-1.9-7 6-10 6-4.1 0-2-2-2-2zm28-35s18 0 22 27l-2 3s-2-24-20-27zm-11 4 3-1v-3h-5zm-9 7c3 2 5 0 5 0-2-3-5 0-5 0z" fill="#222"/></svg>